# xmcd
#
# Track frame offsets: 
#        150
#        10074
#        20696
#        33468
#        46157
#        58455
#        70572
#        85760
#        99768
#        119291
#        131588
#        143468
#
# Disc length: 2078 seconds
#
# Revision: 0
# Processed by: cddbd v1.5PL3 Copyright (c) Steve Scherf et al.
# Submitted via: ExactAudioCopy v0.90b4
#
DISCID=93081c0c
DTITLE=Sonny, Hal and Weldon - Steel Guitars Of The Grand Old Opry
DYEAR=1900
DGENRE=Country
TTITLE0=Steel Guitar Rag
TTITLE1=This Time I Almost Made It
TTITLE2=Life's Railway to Heaven
TTITLE3=Jamaican Steel
TTITLE4=City Lights
TTITLE5=Annie's Song
TTITLE6=Sundown
TTITLE7=The Great Speckled Bird
TTITLE8=Killing Me Softly
TTITLE9=The Waltz You Saved For Me
TTITLE10=If You Love Me, Let Me Know
TTITLE11=Maiden's Prayer - Faded Love
EXTD=
EXTT0=
EXTT1=
EXTT2=
EXTT3=
EXTT4=
EXTT5=
EXTT6=
EXTT7=
EXTT8=
EXTT9=
EXTT10=
EXTT11=
PLAYORDER=
